<svg fill="none" height="129" viewBox="0 0 129 129" width="129" xmlns="http://www.w3.org/2000/svg"><g stroke="#fff" stroke-miterlimit="10"><path d="m67.5293 68.696h-4.9951v18.1075h4.9951c7.4786 0 9.8059-3.3774 9.8059-9.3517 0-5.9744-2.3273-8.7558-9.8059-8.7558z" opacity=".2"/><path d="m64.9181.537599c-12.5689-.002807-24.8564 3.721741-35.3084 10.702601-10.452 6.9809-18.5991 16.9045-23.41099 28.5158-4.81186 11.6114-6.072314 24.3889-3.62196 36.7167 2.45035 12.3277 8.50145 23.6523 17.38805 32.5403 8.8865 8.889 20.2094 14.942 32.5366 17.395 12.3272 2.454 25.105 1.196 36.7174-3.613 11.6122-4.81 21.5382-12.954 28.5212-23.4049 6.983-10.4505 10.71-22.7371 10.71-35.306 0-16.8511-6.693-33.0123-18.607-44.9292-11.9141-11.91682-28.0738-18.613538-44.9249-18.617301zm0 117.783401c-10.7199.003-21.1999-3.173-30.1143-9.127-8.9145-5.954-15.8629-14.418-19.9666-24.3214-4.1036-9.9034-5.17801-20.8013-3.0874-31.3154 2.0907-10.514 7.2525-20.1719 14.8327-27.752 7.5801-7.5801 17.238-12.742 27.752-14.8326 10.5141-2.0907 21.412-1.01626 31.3154 3.0874 9.9034 4.1036 18.3671 11.0521 24.3211 19.9665 5.954 8.9145 9.13 19.3944 9.128 30.1143-.034 14.354-5.755 28.1095-15.91 38.2542-10.1553 10.144-23.9169 15.851-38.2709 15.87z" opacity=".2"/><path d="m75.9019 51.6671c0-5.2648-2.3131-7.8475-8.9118-7.8475h-4.4559v15.8795h4.4559c6.5136 0 8.9118-2.7672 8.9118-8.032z" opacity=".2"/><path d="m64.9182 13.6213c-9.9812-.0028-19.739 2.9544-28.0394 8.4976s-14.7705 13.4234-18.5921 22.644c-3.8215 9.2205-4.8229 19.3673-2.8774 29.157s6.7505 18.7826 13.8072 25.8414c7.0568 7.0587 16.0483 11.8657 25.8375 13.8147 9.7891 1.948 19.9362.949 29.1579-2.869 9.2216-3.819 17.1041-10.287 22.6491-18.5862 5.546-8.2988 8.506-18.0558 8.506-28.0369-.016-13.3765-5.335-26.2009-14.792-35.6608-9.4574-9.4599-22.2804-14.783-35.6568-14.8018zm10.1038 80.0362v11.3525h-6.4142v-10.87h-5.9602v10.856h-6.4142v-10.8702h-14.3185v-8.5145h2.8381c.6172-.0926 1.1866-.3862 1.6202-.8351.4335-.4489.707-1.0282.7781-1.6483v-36.0446c-.0711-.6201-.3446-1.1994-.7781-1.6483-.4336-.4489-1.003-.7424-1.6202-.8351h-2.8381v-8.5145h14.2901v-10.9269h6.4143v10.9269h5.9601v-10.856h6.4142v11.3527c10.1181 1.4191 15.4538 6.1588 15.4538 14.4178 0 7.2941-4.1437 10.856-11.7642 12.4312v.3264c8.8551 1.3339 13.7509 5.6763 13.7509 13.5096 0 9.4511-6.5561 14.872-17.4405 16.3904z" opacity=".2"/></g></svg>