<svg width="519" height="217" viewBox="0 0 519 217" fill="none" xmlns="http://www.w3.org/2000/svg">
<g filter="url(#filter0_d_30_1695)">
<path d="M100.97 44.9109H103.98C104.18 44.9109 104.34 44.7509 104.34 44.5609C104.34 44.3609 104.18 44.2009 103.98 44.2009H100.97C100.78 44.2009 100.61 44.3609 100.61 44.5609C100.61 44.7509 100.77 44.9109 100.97 44.9109ZM102.47 71.3209C101.61 71.3209 100.9 72.0309 100.9 72.8909C100.9 73.7509 101.6 74.4609 102.47 74.4609C103.34 74.4609 104.04 73.7609 104.04 72.8909C104.04 72.0209 103.34 71.3209 102.47 71.3209ZM94.79 69.9809H110.17V47.2309H94.79V69.9809ZM144.08 62.5109C143.35 62.5109 142.69 62.7509 142.1 63.2309C141.51 63.7209 141.12 64.3509 140.94 65.1409C140.85 65.5109 140.81 65.8109 140.81 66.0409V68.2509C140.81 69.2209 141.1 70.0409 141.7 70.7009C142.29 71.3609 143.06 71.7009 144.01 71.7009C145.12 71.7009 145.99 71.2709 146.61 70.4109C147.23 69.5509 147.54 68.4209 147.54 67.0109C147.54 65.7209 147.25 64.6509 146.67 63.8109C146.02 62.9509 145.16 62.5109 144.08 62.5109ZM198.01 62.3209C196.83 62.3209 195.92 62.8509 195.31 63.9009C194.77 64.7709 194.51 65.8309 194.51 67.0909C194.51 68.3109 194.77 69.3609 195.31 70.2309C195.94 71.2809 196.84 71.8109 197.99 71.8109C199.11 71.8109 200 71.2809 200.64 70.2009C201.19 69.3209 201.47 68.2609 201.47 67.0409C201.47 65.8209 201.21 64.7709 200.68 63.9009C200.04 62.8509 199.16 62.3209 198.01 62.3209ZM158.7 62.5109C157.97 62.5109 157.31 62.7509 156.72 63.2309C156.13 63.7209 155.74 64.3509 155.55 65.1409C155.46 65.5109 155.42 65.8109 155.42 66.0409V68.2509C155.42 69.2209 155.71 70.0409 156.31 70.7009C156.9 71.3609 157.67 71.7009 158.62 71.7009C159.74 71.7009 160.6 71.2709 161.23 70.4109C161.85 69.5509 162.16 68.4209 162.16 67.0109C162.16 65.7209 161.87 64.6509 161.28 63.8109C160.64 62.9509 159.78 62.5109 158.7 62.5109ZM128.16 57.7509H128.1C127.91 58.5409 127.63 59.6909 127.22 61.2309L125.69 66.0509H130.64L129.09 61.2309C128.92 60.7309 128.61 59.5709 128.16 57.7509ZM220.43 62.1809C219.47 62.1809 218.68 62.5909 218.08 63.3909C217.59 64.0309 217.29 64.7909 217.2 65.6809H223.36C223.38 64.8109 223.19 64.0509 222.79 63.4109C222.27 62.6009 221.48 62.1809 220.43 62.1809ZM141.19 49.0509C141.23 48.9209 141.23 48.8009 141.23 48.6709V47.7309C140.01 47.7209 138.84 47.9709 138.84 49.0109C138.84 49.6909 139.28 50.0009 139.82 50.0009C140.53 49.9909 141.02 49.5409 141.19 49.0509ZM125.06 44.7509C124.88 44.1709 124.72 43.5309 124.58 42.9809H124.55C124.41 43.5309 124.26 44.1909 124.1 44.7509L123.37 47.0909H125.8L125.06 44.7509ZM232.39 30.9409H86.72C83.02 30.9409 80 33.9609 80 37.6609V79.5209C80 83.2209 83.02 86.2309 86.72 86.2309H232.39C236.1 86.2309 239.11 83.2209 239.11 79.5209V37.6609C239.12 33.9609 236.1 30.9409 232.39 30.9409ZM223.16 44.0709C225.38 44.0709 226.12 45.9009 226.12 47.4009C226.12 47.7209 226.09 47.9809 226.06 48.1309H221.47C221.51 49.3709 222.47 49.9009 223.58 49.9009C224.38 49.9009 224.95 49.7709 225.48 49.5909L225.73 50.7709C225.14 51.0209 224.32 51.2109 223.34 51.2109C221.12 51.2109 219.81 49.8509 219.81 47.7509C219.81 45.8609 220.96 44.0709 223.16 44.0709ZM195.7 44.2309L195.78 45.2609H195.82C196.13 44.7209 196.87 44.0809 198.01 44.0809C199.21 44.0809 200.44 44.8509 200.44 47.0209V51.0909H198.71V47.2209C198.71 46.2409 198.34 45.4909 197.4 45.4909C196.71 45.4909 196.23 45.9809 196.05 46.5009C195.99 46.6409 195.97 46.8509 195.97 47.0509V51.0909H194.24V46.2809C194.24 45.4909 194.21 44.8309 194.18 44.2409H195.7V44.2309ZM177.52 44.0709C179.74 44.0709 180.48 45.9009 180.48 47.4009C180.48 47.7209 180.45 47.9809 180.42 48.1309H175.83C175.87 49.3709 176.83 49.9009 177.94 49.9009C178.74 49.9009 179.3 49.7709 179.84 49.5909L180.09 50.7709C179.5 51.0209 178.68 51.2109 177.7 51.2109C175.48 51.2109 174.17 49.8509 174.17 47.7509C174.17 45.8609 175.33 44.0709 177.52 44.0709ZM170.43 41.0909H172.16V51.0809H170.43V41.0909ZM156.71 45.2909C156.03 45.2909 155.33 45.5009 154.87 45.8009L154.53 44.6709C155.04 44.3609 155.92 44.0709 157.01 44.0709C159.21 44.0709 159.84 45.4609 159.84 46.9709V49.4309C159.84 50.0509 159.87 50.6509 159.95 51.0809H158.39L158.26 50.3209H158.22C157.81 50.8509 157.09 51.2409 156.19 51.2409C154.81 51.2409 154.04 50.2409 154.04 49.2009C154.04 47.4809 155.57 46.6009 158.11 46.6109V46.5009C158.1 46.0409 157.91 45.2909 156.71 45.2909ZM146.47 41.3709C147.06 41.3709 147.43 41.7809 147.44 42.3109C147.44 42.8209 147.06 43.2409 146.45 43.2409C145.87 43.2409 145.49 42.8209 145.49 42.3109C145.5 41.7809 145.9 41.3709 146.47 41.3709ZM147.33 44.2309V51.0809H145.6V44.2309H147.33ZM123.53 41.5909H125.74L128.82 51.0709H126.95L126.09 48.3809H123.09L122.27 51.0709H120.48L123.53 41.5909ZM112 73.0409C112 74.7109 110.64 76.0709 108.97 76.0709H95.97C94.3 76.0709 92.94 74.7209 92.94 73.0409V44.1609C92.94 42.4909 94.3 41.1309 95.97 41.1309H108.97C110.64 41.1309 112 42.4909 112 44.1609V73.0409ZM132.89 73.7309L131.17 68.3109H125.17L123.53 73.7309H120.47L126.4 55.2809H130.07L136.04 73.7309H132.89ZM133.56 51.0809H131.86L129.31 44.2309H131.18L132.29 47.7109C132.49 48.3109 132.63 48.8609 132.75 49.4309H132.79C132.92 48.8709 133.07 48.3309 133.25 47.7109L134.35 44.2309H136.17L133.56 51.0809ZM137.13 49.1909C137.13 47.4709 138.66 46.5909 141.2 46.6009V46.4909C141.2 46.0409 141.02 45.2909 139.81 45.2909C139.13 45.2909 138.43 45.5009 137.97 45.8009L137.63 44.6709C138.14 44.3609 139.02 44.0709 140.11 44.0709C142.3 44.0709 142.94 45.4609 142.94 46.9709V49.4309C142.94 50.0509 142.97 50.6509 143.05 51.0809H141.49L141.36 50.3209H141.32C140.91 50.8509 140.19 51.2409 139.29 51.2409C137.9 51.2309 137.13 50.2309 137.13 49.1909ZM148.7 72.2909C147.6 73.4509 146.23 74.0409 144.6 74.0409C142.83 74.0409 141.57 73.4109 140.8 72.1509V79.1409H137.85V64.8009C137.85 63.3809 137.81 61.9209 137.74 60.4309H140.34L140.5 62.5409H140.55C141.54 60.9609 143.03 60.1609 145.04 60.1609C146.61 60.1609 147.92 60.7809 148.97 62.0209C150.02 63.2609 150.54 64.9009 150.54 66.9209C150.55 69.1909 149.93 70.9709 148.7 72.2909ZM151.78 51.0809H150.05V41.0909H151.78V51.0809ZM163.32 72.2909C162.22 73.4509 160.85 74.0409 159.22 74.0409C157.46 74.0409 156.19 73.4109 155.43 72.1509V79.1409H152.47V64.8009C152.47 63.3809 152.43 61.9209 152.36 60.4309H154.95L155.12 62.5409H155.17C156.16 60.9609 157.65 60.1609 159.66 60.1609C161.23 60.1609 162.54 60.7809 163.59 62.0209C164.64 63.2609 165.17 64.9009 165.17 66.9209C165.16 69.1909 164.55 70.9709 163.32 72.2909ZM165.35 51.2309C164.46 51.2309 163.68 50.8909 163.18 50.0509H163.15L163.07 51.0809H161.59C161.62 50.6209 161.65 49.8609 161.65 49.1509V41.0909H163.38V45.1709H163.41C163.83 44.5109 164.58 44.0709 165.61 44.0709C167.28 44.0709 168.48 45.4609 168.47 47.5409C168.46 50.0109 166.89 51.2309 165.35 51.2309ZM180.23 72.3909C179.02 73.4709 177.35 74.0009 175.2 74.0009C173.21 74.0009 171.62 73.6209 170.42 72.8509L171.11 70.3909C172.4 71.1509 173.83 71.5409 175.37 71.5409C176.49 71.5409 177.35 71.2909 177.97 70.7909C178.59 70.2909 178.9 69.6209 178.9 68.7709C178.9 68.0309 178.64 67.4009 178.14 66.8909C177.62 66.3809 176.78 65.9109 175.6 65.4709C172.37 64.2709 170.76 62.5109 170.76 60.1909C170.76 58.6809 171.32 57.4309 172.47 56.4609C173.61 55.5009 175.12 55.0109 177 55.0109C178.68 55.0109 180.07 55.3009 181.19 55.8809L180.44 58.2909C179.4 57.7309 178.22 57.4409 176.9 57.4409C175.86 57.4409 175.04 57.7009 174.45 58.2009C173.96 58.6609 173.71 59.2209 173.71 59.8709C173.71 60.5909 173.99 61.2009 174.56 61.6809C175.05 62.1209 175.95 62.5909 177.24 63.1009C178.83 63.7309 180 64.4909 180.75 65.3509C181.5 66.2109 181.87 67.2709 181.87 68.5509C181.86 70.1309 181.31 71.4109 180.23 72.3909ZM190.65 62.6409H187.39V69.1109C187.39 70.7509 187.97 71.5709 189.12 71.5709C189.65 71.5709 190.08 71.5309 190.43 71.4409L190.51 73.6809C189.93 73.9009 189.16 74.0109 188.21 74.0109C187.05 74.0109 186.13 73.6609 185.47 72.9409C184.81 72.2309 184.48 71.0309 184.48 69.3609V62.6409H182.54V60.4309H184.48V58.0009L187.38 57.1209V60.4309H190.64V62.6409H190.65ZM188.98 51.2309C187.05 51.2309 185.55 49.9109 185.55 47.7009C185.55 45.4509 187.03 44.0709 189.1 44.0709C191.14 44.0709 192.51 45.5109 192.51 47.5909C192.5 50.1109 190.72 51.2309 188.98 51.2309ZM202.78 72.0109C201.55 73.3609 199.93 74.0309 197.91 74.0309C195.95 74.0309 194.39 73.3809 193.24 72.0909C192.08 70.8009 191.51 69.1609 191.51 67.1909C191.51 65.1309 192.11 63.4409 193.3 62.1309C194.5 60.8109 196.1 60.1609 198.13 60.1609C200.09 60.1609 201.66 60.8009 202.84 62.1009C203.97 63.3509 204.53 64.9809 204.53 66.9709C204.52 69.0209 203.94 70.6909 202.78 72.0109ZM205.83 44.2309H206.8V42.9409L208.5 42.4609V44.2209H210.15V45.5109H208.5V48.5409C208.5 49.3809 208.72 49.8109 209.39 49.8109C209.7 49.8109 209.87 49.8009 210.07 49.7409L210.1 51.0509C209.85 51.1509 209.38 51.2309 208.85 51.2309C208.2 51.2309 207.68 51.0209 207.36 50.6709C206.98 50.2809 206.81 49.6409 206.81 48.7409V45.5209H205.84V44.2309H205.83ZM213.42 63.0309C213.13 62.9809 212.82 62.9509 212.49 62.9509C211.45 62.9509 210.65 63.3409 210.08 64.1209C209.59 64.8209 209.34 65.6809 209.34 66.7509V73.7309H206.38V64.6109C206.38 63.0909 206.35 61.6909 206.3 60.4309H208.87L208.98 62.9809H209.06C209.37 62.1109 209.86 61.4009 210.54 60.8809C211.2 60.4009 211.91 60.1709 212.68 60.1709C212.95 60.1709 213.2 60.1809 213.41 60.2209V63.0309H213.42ZM213.87 46.9709V51.0809H212.14V41.0909H213.87V45.1609H213.9C214.11 44.8409 214.41 44.5709 214.76 44.3909C215.11 44.1909 215.52 44.0809 215.96 44.0809C217.13 44.0809 218.35 44.8509 218.35 47.0509V51.0909H216.62V47.2409C216.62 46.2509 216.25 45.4909 215.3 45.4909C214.62 45.4909 214.15 45.9409 213.95 46.4609C213.88 46.6009 213.87 46.7909 213.87 46.9709ZM226.07 67.8009H217.2C217.24 69.1109 217.66 70.1109 218.49 70.8009C219.24 71.4209 220.2 71.7309 221.39 71.7309C222.71 71.7309 223.9 71.5209 224.98 71.1009L225.45 73.1609C224.2 73.7109 222.7 73.9809 220.99 73.9809C218.93 73.9809 217.31 73.3809 216.14 72.1609C214.96 70.9509 214.37 69.3209 214.37 67.2809C214.37 65.2709 214.92 63.6009 216.01 62.2709C217.17 60.8509 218.72 60.1409 220.67 60.1409C222.59 60.1409 224.04 60.8509 225.02 62.2709C225.8 63.4009 226.2 64.8009 226.2 66.4609C226.17 66.9809 226.14 67.4309 226.07 67.8009ZM164.97 45.4209C164.27 45.4209 163.62 45.9309 163.44 46.6909C163.41 46.8209 163.38 46.9709 163.38 47.1409V48.2509C163.38 48.3909 163.39 48.5309 163.42 48.6609C163.6 49.3609 164.21 49.8709 164.95 49.8709C166.03 49.8709 166.7 49.0109 166.7 47.6209C166.7 46.4109 166.12 45.4209 164.97 45.4209ZM177.42 45.2509C176.35 45.2509 175.9 46.2209 175.83 46.9209H178.84C178.86 46.2909 178.58 45.2509 177.42 45.2509ZM189.05 45.3209C187.83 45.3209 187.33 46.5209 187.33 47.6609C187.33 48.9809 187.99 49.9809 189.03 49.9809C190.01 49.9809 190.7 49.0209 190.7 47.6309C190.71 46.5609 190.23 45.3209 189.05 45.3209ZM155.75 49.0109C155.75 49.6909 156.19 50.0009 156.73 50.0009C157.43 50.0009 157.93 49.5509 158.1 49.0609C158.14 48.9309 158.14 48.8109 158.14 48.6809V47.7409C156.92 47.7209 155.75 47.9709 155.75 49.0109ZM223.06 45.2509C221.99 45.2509 221.54 46.2209 221.47 46.9209H224.48C224.49 46.2909 224.21 45.2509 223.06 45.2509Z" fill="#D7C2FF"/>
<path d="M342.15 42.7207C341.8 42.7207 341.51 42.8707 341.27 43.1807C341.03 43.4907 340.91 43.8807 340.91 44.3507C340.91 44.8407 341.04 45.2407 341.29 45.5507C341.54 45.8607 341.86 46.0107 342.22 46.0107C342.57 46.0107 342.86 45.8507 343.1 45.5407C343.34 45.2307 343.46 44.8407 343.46 44.3707C343.46 43.8807 343.33 43.4707 343.08 43.1707C342.84 42.8707 342.53 42.7207 342.15 42.7207Z" fill="#D7C2FF"/>
<path d="M349.02 42.751C348.92 42.751 348.78 42.761 348.6 42.781C348.62 43.251 348.64 43.751 348.64 44.261C348.64 44.831 348.65 45.391 348.68 45.941C348.83 45.971 348.99 45.991 349.14 45.991C349.65 45.991 350.03 45.831 350.27 45.521C350.51 45.201 350.64 44.821 350.64 44.371C350.64 43.921 350.51 43.531 350.24 43.221C349.97 42.901 349.56 42.751 349.02 42.751Z" fill="#D7C2FF"/>
<path d="M360.63 42.7012C360.46 42.7012 360.28 42.7212 360.1 42.7512C360.13 43.2012 360.14 43.7012 360.14 44.2712C360.2 44.2712 360.27 44.2812 360.35 44.2812C361.21 44.2812 361.64 44.0112 361.64 43.4612C361.64 42.9612 361.31 42.7012 360.63 42.7012Z" fill="#D7C2FF"/>
<path d="M356.12 42.6909C356.12 42.7809 355.91 43.4409 355.49 44.6709H356.78C356.38 43.4509 356.17 42.7909 356.17 42.6909H356.12Z" fill="#D7C2FF"/>
<path d="M322.61 42.6909C322.61 42.7809 322.4 43.4409 321.98 44.6709H323.27C322.87 43.4509 322.66 42.7909 322.66 42.6909H322.61Z" fill="#676099"/>
<path d="M337.131 42.7109C336.911 42.7109 336.711 42.7309 336.541 42.7609C336.571 43.1309 336.581 43.6009 336.581 44.1909C336.711 44.1909 336.821 44.2009 336.911 44.2009C337.661 44.2009 338.041 43.9409 338.041 43.4209C338.031 42.9409 337.731 42.7109 337.131 42.7109Z" fill="#D7C2FF"/>
<path d="M332.04 42.751C331.94 42.751 331.8 42.761 331.62 42.781C331.64 43.251 331.66 43.751 331.66 44.261C331.66 44.831 331.67 45.391 331.7 45.941C331.85 45.971 332.01 45.991 332.16 45.991C332.67 45.991 333.05 45.831 333.29 45.521C333.53 45.201 333.66 44.821 333.66 44.371C333.66 43.921 333.53 43.531 333.26 43.221C332.99 42.901 332.59 42.751 332.04 42.751Z" fill="#D7C2FF"/>
<path d="M371.47 42.7207C371.12 42.7207 370.83 42.8707 370.59 43.1807C370.35 43.4907 370.23 43.8807 370.23 44.3507C370.23 44.8407 370.36 45.2407 370.61 45.5507C370.86 45.8607 371.18 46.0107 371.54 46.0107C371.89 46.0107 372.18 45.8507 372.42 45.5407C372.66 45.2307 372.78 44.8407 372.78 44.3707C372.78 43.8807 372.65 43.4707 372.4 43.1707C372.16 42.8707 371.84 42.7207 371.47 42.7207Z" fill="#D7C2FF"/>
<path d="M364.89 42.7012C364.72 42.7012 364.54 42.7212 364.36 42.7512C364.39 43.2012 364.4 43.7012 364.4 44.2712C364.46 44.2712 364.53 44.2812 364.61 44.2812C365.47 44.2812 365.9 44.0112 365.9 43.4612C365.9 42.9612 365.56 42.7012 364.89 42.7012Z" fill="#D7C2FF"/>
<path d="M355.64 59.3408C354.65 59.3408 353.79 59.7108 353.06 60.4508C352.33 61.1908 351.97 62.1708 351.97 63.4008C351.97 64.6208 352.33 65.6008 353.06 66.3508C353.79 67.0908 354.65 67.4608 355.64 67.4608C356.63 67.4608 357.49 67.0908 358.22 66.3508C358.95 65.6108 359.31 64.6308 359.31 63.4008C359.31 62.1808 358.95 61.2008 358.22 60.4508C357.49 59.7108 356.63 59.3408 355.64 59.3408Z" fill="#D7C2FF"/>
<path d="M343.38 59.3408C342.39 59.3408 341.53 59.7108 340.8 60.4508C340.07 61.1908 339.71 62.1708 339.71 63.4008C339.71 64.6208 340.07 65.6008 340.8 66.3508C341.53 67.0908 342.38 67.4608 343.38 67.4608C344.37 67.4608 345.23 67.0908 345.96 66.3508C346.69 65.6108 347.05 64.6308 347.05 63.4008C347.05 62.1808 346.69 61.2008 345.96 60.4508C345.23 59.7108 344.37 59.3408 343.38 59.3408Z" fill="#D7C2FF"/>
<path d="M401.58 54.6211H398.05V60.3511H401.58C402.47 60.3511 403.18 60.0511 403.71 59.4611C404.25 58.8611 404.51 58.2111 404.51 57.4911C404.51 56.7711 404.24 56.1111 403.71 55.5211C403.18 54.9211 402.46 54.6211 401.58 54.6211Z" fill="#D7C2FF"/>
<path d="M414.37 64.1108C413.85 64.5508 413.59 65.0708 413.59 65.6708C413.59 66.2208 413.83 66.6608 414.3 66.9808C414.77 67.3008 415.32 67.4608 415.93 67.4608C416.8 67.4608 417.59 67.1308 418.3 66.4908C419.01 65.8408 419.37 65.0708 419.37 64.1908C418.77 63.7008 417.88 63.4608 416.69 63.4608C415.66 63.4508 414.89 63.6708 414.37 64.1108Z" fill="#D7C2FF"/>
<path d="M384.2 59.3408C383.42 59.3408 382.74 59.5808 382.17 60.0708C381.6 60.5608 381.2 61.2208 380.99 62.0408H387.5C387.45 61.4008 387.16 60.7908 386.62 60.2108C386.08 59.6308 385.27 59.3408 384.2 59.3408Z" fill="#D7C2FF"/>
<path d="M367.81 59.3408C366.83 59.3408 365.99 59.7108 365.29 60.4508C364.59 61.1908 364.24 62.1708 364.24 63.4008C364.24 64.6208 364.59 65.6008 365.29 66.3508C365.99 67.0908 366.83 67.4608 367.81 67.4608C368.8 67.4608 369.65 67.0908 370.34 66.3608C371.04 65.6308 371.38 64.6408 371.38 63.4008C371.38 62.1608 371.03 61.1808 370.34 60.4408C369.65 59.7108 368.81 59.3408 367.81 59.3408Z" fill="#D7C2FF"/>
<path d="M430.56 30.9609H276.58C272.46 30.9609 269.11 34.3009 269.11 38.4309V78.7509C269.11 82.8709 272.45 86.2209 276.58 86.2209H430.56C434.68 86.2209 438.03 82.8809 438.03 78.7509V38.4309C438.02 34.3109 434.68 30.9609 430.56 30.9609ZM363.44 42.0609H364.06C364.15 42.0609 364.32 42.0609 364.56 42.0509C364.81 42.0409 365.02 42.0409 365.21 42.0409C365.66 42.0409 366.04 42.1409 366.35 42.3509C366.66 42.5509 366.81 42.8609 366.81 43.2809C366.81 43.8509 366.6 44.2609 366.18 44.5309C365.76 44.8009 365.25 44.9309 364.63 44.9309C364.52 44.9309 364.44 44.9309 364.39 44.9209C364.39 45.3609 364.4 45.9509 364.43 46.6809H363.43C363.46 46.0009 363.48 45.1909 363.48 44.2609C363.49 43.4109 363.47 42.6709 363.44 42.0609ZM354.75 44.4109C355.3 42.9909 355.58 42.2109 355.58 42.0609H356.92C356.92 42.1909 357.17 42.9709 357.67 44.3709C358.17 45.7809 358.42 46.5509 358.42 46.6709H357.28C357.28 46.5109 357.17 46.0709 356.96 45.3409H355.32C355.1 46.0609 354.99 46.5009 354.99 46.6709H353.92C353.92 46.5809 354.2 45.8309 354.75 44.4109ZM347.7 42.0609H348.32C348.42 42.0609 348.57 42.0609 348.77 42.0509C348.97 42.0409 349.1 42.0409 349.16 42.0409C350.01 42.0409 350.63 42.2509 351.02 42.6809C351.4 43.1109 351.6 43.6209 351.6 44.2109C351.6 44.8809 351.38 45.4709 350.95 45.9709C350.52 46.4709 349.92 46.7209 349.14 46.7209C348.79 46.7209 348.31 46.7109 347.69 46.6809C347.72 45.9709 347.74 45.1609 347.74 44.2609C347.74 43.4009 347.73 42.6609 347.7 42.0609ZM345.45 42.0609H346.45C346.42 42.6609 346.4 43.3909 346.4 44.2609C346.4 45.1509 346.42 45.9609 346.45 46.6809H345.45C345.48 45.9509 345.5 45.1409 345.5 44.2609C345.5 43.4009 345.48 42.6609 345.45 42.0609ZM340.6 42.6709C341.04 42.1909 341.59 41.9509 342.25 41.9509C342.87 41.9509 343.4 42.1709 343.82 42.6109C344.24 43.0509 344.45 43.6109 344.45 44.2809C344.45 45.0109 344.23 45.6109 343.78 46.0909C343.34 46.5709 342.79 46.8109 342.13 46.8109C341.51 46.8109 340.98 46.5909 340.56 46.1509C340.14 45.7109 339.93 45.1509 339.93 44.4809C339.93 43.7509 340.16 43.1409 340.6 42.6709ZM330.72 42.0609H331.34C331.44 42.0609 331.59 42.0609 331.79 42.0509C331.99 42.0409 332.12 42.0409 332.18 42.0409C333.03 42.0409 333.65 42.2509 334.04 42.6809C334.42 43.1109 334.62 43.6209 334.62 44.2109C334.62 44.8809 334.4 45.4709 333.97 45.9709C333.54 46.4709 332.94 46.7209 332.16 46.7209C331.81 46.7209 331.33 46.7109 330.71 46.6809C330.74 45.9709 330.76 45.1609 330.76 44.2609C330.77 43.4009 330.75 42.6609 330.72 42.0609ZM325.68 42.0609H326.73C326.73 42.1909 327.02 42.6909 327.61 43.5609C328.23 44.4909 328.59 45.1209 328.68 45.4509H328.73C328.67 44.9209 328.64 44.4509 328.64 44.0309C328.64 43.3909 328.62 42.7309 328.59 42.0609H329.48C329.45 42.6509 329.43 43.3809 329.43 44.2609C329.43 45.1509 329.45 45.9509 329.48 46.6809H328.6C328.6 46.5809 328.27 46.0709 327.62 45.1409C326.94 44.1609 326.55 43.5009 326.46 43.1409H326.4C326.46 43.6609 326.49 44.1309 326.49 44.5409C326.49 45.1209 326.51 45.8409 326.54 46.6809H325.67C325.71 45.9509 325.72 45.1409 325.72 44.2609C325.73 43.4009 325.71 42.6609 325.68 42.0609ZM321.24 44.4109C321.79 42.9909 322.07 42.2109 322.07 42.0609H323.41C323.41 42.1909 323.66 42.9709 324.16 44.3709C324.66 45.7809 324.91 46.5509 324.91 46.6709H323.77C323.77 46.5109 323.66 46.0709 323.45 45.3409H321.81C321.59 46.0609 321.48 46.5009 321.48 46.6709H320.41C320.41 46.5809 320.69 45.8309 321.24 44.4109ZM283.83 42.7709C291.01 46.7909 298.19 50.8209 305.37 54.8309C305.7 55.0109 305.69 55.1209 305.44 55.3709C303.83 56.9509 302.24 58.5409 300.65 60.1409C300.48 60.3109 300.37 60.4109 300.14 60.1809C294.43 54.3509 288.71 48.5409 282.99 42.7209C282.94 42.6709 282.9 42.6109 282.81 42.4909C283.24 42.4809 283.54 42.6109 283.83 42.7709ZM281.62 78.2509C281.02 77.7909 280.79 77.1709 280.79 76.4309C280.79 73.3209 280.79 70.2209 280.78 67.1109C280.78 64.9109 280.78 62.7209 280.78 60.5209H280.79C280.79 55.2809 280.79 50.0309 280.79 44.7909C280.79 44.1509 280.91 43.5609 281.37 43.0709C281.55 42.8809 281.67 42.8309 281.89 43.0509C285.42 46.6509 288.95 50.2409 292.49 53.8309C294.78 56.1609 297.07 58.4809 299.37 60.8009C299.59 61.0209 299.61 61.1409 299.38 61.3809C293.76 66.9709 288.14 72.5709 282.54 78.1809C282.19 78.5409 281.95 78.5009 281.62 78.2509ZM304.75 66.8609C298.06 70.5209 291.37 74.2009 284.69 77.8709C284.58 77.9309 284.48 78.0309 284.42 78.0709C289.63 72.8009 294.85 67.5409 300.05 62.2609C300.37 61.9309 300.52 61.9809 300.81 62.2809C302.13 63.6609 303.47 65.0109 304.82 66.3609C305.05 66.5909 305.07 66.6809 304.75 66.8609ZM313.46 61.9909C313.15 62.2209 312.8 62.4109 312.46 62.6009C310.44 63.7209 308.41 64.8309 306.39 65.9509C306.12 66.1009 305.96 66.1009 305.73 65.8609C304.29 64.3809 302.84 62.9009 301.39 61.4409C301.18 61.2309 301.17 61.1109 301.39 60.9009C303.09 59.2309 304.78 57.5409 306.46 55.8509C306.66 55.6509 306.8 55.6309 307.05 55.7709C309.05 56.9009 311.06 58.0209 313.06 59.1409C313.68 59.4909 314.16 59.9409 314.19 60.6709C314.16 61.2709 313.89 61.6809 313.46 61.9909ZM334.69 66.9509C333.15 68.5709 331.14 69.3809 328.66 69.3809C326.29 69.3809 324.28 68.5609 322.62 66.9209C320.96 65.2809 320.13 63.2409 320.13 60.8109C320.13 58.3809 320.96 56.3409 322.62 54.7009C324.28 53.0609 326.29 52.2409 328.66 52.2409C329.84 52.2409 330.96 52.4709 332.03 52.9309C333.1 53.3909 333.96 54.0009 334.6 54.7609L333.16 56.2009C332.07 54.9009 330.58 54.2509 328.67 54.2509C326.94 54.2509 325.45 54.8609 324.19 56.0709C322.93 57.2809 322.3 58.8609 322.3 60.8009C322.3 62.7409 322.93 64.3209 324.19 65.5309C325.45 66.7409 326.94 67.3509 328.67 67.3509C330.5 67.3509 332.03 66.7409 333.26 65.5209C334.05 64.7309 334.51 63.6209 334.64 62.2009H328.68V60.2409H336.64C336.72 60.6709 336.75 61.0809 336.75 61.4809C336.73 63.7709 336.05 65.5909 334.69 66.9509ZM336.58 44.8309C336.58 45.4409 336.59 46.0509 336.61 46.6709H335.62C335.65 45.9609 335.67 45.1509 335.67 44.2509C335.67 43.3909 335.65 42.6509 335.62 42.0509H336.23C336.3 42.0509 336.45 42.0509 336.68 42.0409C336.91 42.0309 337.11 42.0309 337.31 42.0309C338.4 42.0309 338.94 42.4009 338.94 43.1409C338.94 43.7309 338.63 44.1409 338.01 44.3709V44.4209C338.25 44.4909 338.46 44.6709 338.64 44.9809C338.82 45.2909 339.06 45.8509 339.37 46.6609H338.32C338.05 45.8209 337.84 45.3109 337.69 45.1109C337.54 44.9109 337.31 44.8209 336.98 44.8209C336.84 44.8309 336.71 44.8309 336.58 44.8309ZM347.52 67.6809C346.43 68.8209 345.05 69.3909 343.37 69.3909C341.69 69.3909 340.31 68.8209 339.22 67.6809C338.13 66.5409 337.59 65.1209 337.59 63.4009C337.59 61.6909 338.13 60.2609 339.22 59.1209C340.3 57.9809 341.69 57.4109 343.37 57.4109C345.05 57.4109 346.43 57.9809 347.52 59.1209C348.6 60.2609 349.15 61.6809 349.15 63.4009C349.15 65.1109 348.61 66.5409 347.52 67.6809ZM359.79 67.6809C358.7 68.8209 357.32 69.3909 355.64 69.3909C353.96 69.3909 352.58 68.8209 351.49 67.6809C350.4 66.5409 349.86 65.1209 349.86 63.4009C349.86 61.6909 350.4 60.2609 351.49 59.1209C352.57 57.9809 353.96 57.4109 355.64 57.4109C357.32 57.4109 358.7 57.9809 359.79 59.1209C360.87 60.2609 361.42 61.6809 361.42 63.4009C361.42 65.1109 360.87 66.5409 359.79 67.6809ZM360.38 44.9209C360.27 44.9209 360.19 44.9209 360.14 44.9109C360.14 45.3509 360.15 45.9409 360.18 46.6709H359.18C359.21 45.9909 359.23 45.1809 359.23 44.2509C359.23 43.4009 359.21 42.6609 359.18 42.0509H359.8C359.89 42.0509 360.06 42.0509 360.3 42.0409C360.55 42.0309 360.76 42.0309 360.95 42.0309C361.4 42.0309 361.78 42.1309 362.09 42.3409C362.4 42.5409 362.55 42.8509 362.55 43.2709C362.55 43.8409 362.34 44.2509 361.92 44.5209C361.51 44.7909 360.99 44.9209 360.38 44.9209ZM373.41 68.4409C373.41 70.3709 372.85 71.8309 371.74 72.8309C370.62 73.8309 369.26 74.3309 367.66 74.3309C366.33 74.3309 365.25 74.0009 364.4 73.3309C363.56 72.6609 362.96 71.9009 362.59 71.0509L364.52 70.2509C364.73 70.8609 365.13 71.3709 365.7 71.7909C366.27 72.2009 366.93 72.4109 367.66 72.4109C368.82 72.4109 369.73 72.0609 370.4 71.3709C371.07 70.6709 371.4 69.7309 371.4 68.5409V67.4609H371.31C370.94 68.0109 370.42 68.4709 369.75 68.8409C369.08 69.2109 368.32 69.3909 367.48 69.3909C366.03 69.3909 364.77 68.8209 363.72 67.6709C362.67 66.5209 362.14 65.1009 362.14 63.4109C362.14 61.7109 362.67 60.2909 363.72 59.1509C364.77 58.0009 366.03 57.4309 367.48 57.4309C368.32 57.4309 369.08 57.6109 369.75 57.9809C370.42 58.3509 370.94 58.8109 371.31 59.3609H371.4V57.8009H373.42V68.4409H373.41ZM373.1 46.0909C372.66 46.5709 372.11 46.8109 371.45 46.8109C370.83 46.8109 370.3 46.5909 369.88 46.1509C369.46 45.7109 369.25 45.1509 369.25 44.4809C369.25 43.7509 369.47 43.1509 369.92 42.6709C370.36 42.1909 370.91 41.9509 371.57 41.9509C372.19 41.9509 372.72 42.1709 373.14 42.6109C373.56 43.0509 373.77 43.6109 373.77 44.2809C373.77 45.0109 373.55 45.6109 373.1 46.0909ZM377.51 69.0209H375.4V52.6009H377.51V69.0209ZM378.58 46.6809H377.7C377.7 46.5809 377.37 46.0709 376.72 45.1409C376.04 44.1609 375.65 43.5009 375.56 43.1409H375.5C375.56 43.6609 375.59 44.1309 375.59 44.5409C375.59 45.1209 375.61 45.8409 375.64 46.6809H374.77C374.81 45.9509 374.82 45.1409 374.82 44.2609C374.82 43.4009 374.8 42.6609 374.77 42.0609H375.82C375.82 42.1909 376.11 42.6909 376.7 43.5609C377.32 44.4909 377.68 45.1209 377.77 45.4509H377.82C377.76 44.9209 377.73 44.4509 377.73 44.0309C377.73 43.3909 377.71 42.7309 377.68 42.0609H378.57C378.54 42.6509 378.52 43.3809 378.52 44.2609C378.53 45.1509 378.54 45.9509 378.58 46.6809ZM389.73 63.7909H380.86C380.92 64.9209 381.3 65.8209 381.99 66.4709C382.69 67.1309 383.5 67.4609 384.43 67.4609C385.94 67.4609 386.97 66.8209 387.5 65.5309L389.38 66.3109C389.01 67.1809 388.41 67.9109 387.57 68.5009C386.73 69.0909 385.7 69.3809 384.48 69.3809C382.78 69.3809 381.4 68.8109 380.34 67.6809C379.28 66.5509 378.75 65.1209 378.75 63.3909C378.75 61.7509 379.27 60.3509 380.3 59.1709C381.33 57.9909 382.65 57.4109 384.25 57.4109C385.92 57.4109 387.25 57.9509 388.25 59.0409C389.25 60.1209 389.75 61.5809 389.75 63.4009L389.73 63.7909ZM405.14 60.9809C404.12 61.9009 402.92 62.3709 401.53 62.3709H398.05V69.0209H395.94V52.6009H401.53C402.92 52.6009 404.12 53.0609 405.14 53.9909C406.16 54.9209 406.66 56.0809 406.66 57.4909C406.67 58.8909 406.16 60.0609 405.14 60.9809ZM410.15 69.0209H408.04V52.6009H410.15V69.0209ZM421.38 69.0209H419.36V67.4609H419.27C418.43 68.7409 417.2 69.3909 415.58 69.3909C414.39 69.3909 413.39 69.0509 412.59 68.3609C411.79 67.6709 411.39 66.7609 411.39 65.6309C411.39 64.4109 411.86 63.4509 412.81 62.7509C413.76 62.0509 414.93 61.7109 416.32 61.7109C417.56 61.7109 418.57 61.9409 419.37 62.4009V62.0809C419.37 61.2509 419.09 60.5909 418.52 60.1009C417.95 59.6009 417.26 59.3509 416.43 59.3509C415.82 59.3509 415.26 59.5009 414.77 59.7909C414.27 60.0809 413.93 60.4809 413.75 60.9809L411.82 60.1509C412.08 59.4809 412.59 58.8609 413.36 58.2809C414.12 57.7109 415.13 57.4209 416.39 57.4209C417.83 57.4209 419.02 57.8409 419.97 58.6809C420.92 59.5209 421.39 60.7109 421.39 62.2309V69.0209H421.38ZM425.97 73.9709H423.79L426.4 68.3109L421.77 57.7909H424.06L427.41 65.8609H427.46L430.71 57.7909H433L425.97 73.9709Z" fill="#D7C2FF"/>
</g>
<defs>
<filter id="filter0_d_30_1695" x="0" y="0.940918" width="518.03" height="215.29" filterUnits="userSpaceOnUse" color-interpolation-filters="sRGB">
<feFlood flood-opacity="0" result="BackgroundImageFix"/>
<feColorMatrix in="SourceAlpha" type="matrix" values="0 0 0 0 0 0 0 0 0 0 0 0 0 0 0 0 0 0 127 0" result="hardAlpha"/>
<feOffset dy="50"/>
<feGaussianBlur stdDeviation="40"/>
<feColorMatrix type="matrix" values="0 0 0 0 0.20694 0 0 0 0 0.163053 0 0 0 0 0.262796 0 0 0 0.1 0"/>
<feBlend mode="normal" in2="BackgroundImageFix" result="effect1_dropShadow_30_1695"/>
<feBlend mode="normal" in="SourceGraphic" in2="effect1_dropShadow_30_1695" result="shape"/>
</filter>
</defs>
</svg>
